<?xml version="1.0" encoding="utf-8"?>
<!-- Generator: Adobe Illustrator 26.1.0, SVG Export Plug-In . SVG Version: 6.00 Build 0)  -->
<svg version="1.1" id="Layer_1" xmlns="http://www.w3.org/2000/svg" xmlns:xlink="http://www.w3.org/1999/xlink" x="0px" y="0px"
	 viewBox="0 0 202.4 202.4" style="enable-background:new 0 0 202.4 202.4;" xml:space="preserve">
<style type="text/css">
	.st0{display:none;}
	.st1{display:inline;}
	.st2{fill:#FC4648;stroke:#000000;stroke-width:4;stroke-miterlimit:10;}
	.st3{fill:#812C1D;}
	.st4{fill:#FE9A88;stroke:#000000;stroke-width:3;stroke-miterlimit:10;}
	.st5{fill:#F77861;}
	.st6{fill:#FFFFFF;stroke:#000000;stroke-width:3;stroke-miterlimit:10;}
	.st7{fill:#0078F1;stroke:#000000;stroke-width:2;stroke-miterlimit:10;}
	.st8{fill:#FFFFFF;}
	.st9{font-family:'TechHeadlines';}
	.st10{font-size:26.6686px;}
</style>
<g id="Layer_1_00000154424905113268064570000002631349342082640785_" class="st0">
	<g class="st1">
		
			<image style="overflow:visible;enable-background:new    ;" width="1920" height="960" xlink:href="lsd-image.jpg"  transform="matrix(1.1799 0 0 1.1799 -1004.9656 -577.3212)">
		</image>
	</g>
</g>
<g id="Layer_4" class="st0">
	
		<image style="display:inline;overflow:visible;enable-background:new    ;" width="1999" height="575" xlink:href="../../Downloads/pngkey.com-flames-png-4979431.png"  transform="matrix(-0.7071 0.7071 -0.7071 -0.7071 152.7787 360.5749)">
	</image>
</g>
<g id="Layer_3" class="st0">
	
		<image style="display:inline;overflow:visible;enable-background:new    ;" width="1620" height="923" xlink:href="menu_aven_ulti_rds.png"  transform="matrix(0.7859 -0.7859 0.7859 0.7859 -1013.5145 123.0296)">
	</image>
</g>
<g id="Layer_2_00000041977319160744213090000001080581799954349204_" class="st0">
	<g class="st1">
		<path class="st2" d="M384.2-100.5c-18.7-131.3-76.4-203.1-133.6-239.1c-57.3-36-123.7-10.4-131-7.8c-7.4,2.6-19.5,10-75.9-5.6
			s-104.1,9.1-104.1,9.1c-105.9,48.6-136.9,201.3-139.3,230c-9.6,115,82.4,182.2,82.4,182.2c4.1,3.3,8.3,6.5,12.6,9.5
			C-48,117.7,25.2,130,94.7,127.5c67.7-2.5,131.9-19,173.8-37.7c5.7-2.6,11.3-5.3,16.6-8.3C361.9,38,391.5-48.9,384.2-100.5z
			 M296.1-22c-34.5,25.5-86.4,47.3-163,48.1c-13.5,0.1-26.3,0.2-38.4,0.1C-13.6,25.4-72.6,14.9-118.7-26.6
			c-20.8-18.7-39-43.7-58-76.9c0,0,13-48.2,52-93.5c11.8-13.7,25.9-27.1,42.7-38.8l0,0c20.6-14.4,45.2-26.2,74.5-33
			c17.6-4.1,36.8-6.4,57.9-6.2c13,0.1,26.8,1,41.3,3c0.1,0,0.1,0,0.2,0c0,0,0.3-0.1,0.9-0.2c0.2,0,0.3-0.1,0.5-0.1h0.1
			c0.1,0,0.2,0,0.3,0c3.1-0.5,9.9-1.4,19.4-2c3.2-0.2,6.7-0.3,10.5-0.4c17.7-0.4,41.5,0.7,67.3,6.6c0.3,0,0.5,0.1,0.7,0.2
			c0.4,0.1,0.8,0.2,1.1,0.3c0.4,0.1,0.8,0.2,1.2,0.3c10.6,2.5,21.6,5.9,32.7,10.2h0.1c14,5.5,28.1,12.7,41.8,22
			c14.9,10.1,29.3,22.7,42.4,38.3l0,0c19.8,23.6,36.9,54.1,48.8,93.4C359.9-103.5,346.1-58.9,296.1-22z"/>
		<path class="st3" d="M359.9-103.5c0,0-13.7,44.6-63.7,81.5c-0.6-86.1-26.7-144.7-41-170.4c8.5-3.2,13.5-6.4,13.5-6.4
			c4,5.9,38.8,2.3,42.4,1.9l0,0C330.9-173.4,348-142.9,359.9-103.5z"/>
		<path class="st3" d="M-122.6-197c0,0,38.5,4.3,42.7-1.8c0,0,2.2,1.4,6.3,3.3l0,0c-0.6,0.9-42.7,71.7-45.1,169
			c-20.8-18.7-39-43.7-58-76.9c0,0,13-48.2,52-93.5c11.8-13.7,25.9-27.1,42.7-38.8l0,0c20.6-14.4,45.2-26.2,74.5-33
			c17.6-4.1,36.8-6.4,57.9-6.2c-20.3,0-38.9,2.3-55.9,6.2c-29.3,6.8-53.9,18.7-74.5,33l0,0C-96.7-224.1-110.8-210.7-122.6-197z"/>
		<path class="st4" d="M296.1-22c0.2,31-2.9,65.6-11.1,103.5c-1.3,6.1-2.7,12.3-4.3,18.5c-49.1,194.3-170.3,214.7-170.3,214.7
			C5.6,318.7-37.7,256.8-97.3,100c-2.8-7.4-5.3-14.8-7.5-22.2c-11-36.7-14.7-72-13.9-104.4c2.4-97.2,44.5-168,45.1-169l0,0l68.2-2.5
			l99.4-3.7h0.6l99.4-3.7l51.9-1.9c0,0,3.7,5,9.2,14.8C269.5-166.7,295.6-108.1,296.1-22z"/>
		<g>
			<path class="st5" d="M94.7-139.7c9.5,61,11.7,122.9,12,184.5c-0.3,61.6-2.4,123.5-12,184.5c-9.6-61-11.7-122.9-12-184.5
				C83-16.9,85.2-78.8,94.7-139.7L94.7-139.7z"/>
		</g>
		<path class="st6" d="M-79.9-235.9v37c-4.2,6.2-42.7,1.8-42.7,1.8C-110.8-210.7-96.7-224.1-79.9-235.9z"/>
		<path class="st6" d="M-5.4-268.9v80.1c-30.4,8.2-56.7-1.3-68.2-6.8l0,0c-4-1.9-6.3-3.3-6.3-3.3v-37
			C-59.3-250.2-34.7-262.1-5.4-268.9z"/>
		<path class="st6" d="M94.1-272.1v86.5c-0.1,0-0.1,0.1-0.2,0.1c-46.6,19.3-99.2-3.3-99.2-3.3v-80.1c17-3.9,35.6-6.2,55.9-6.2
			c13.4,0,27.5,0.9,42.4,2.9C93.3-272.2,93.6-272.1,94.1-272.1C93.9-272.1,94-272.1,94.1-272.1z"/>
		<path class="st6" d="M311.4-197c0,0-0.1,0-0.3,0c-3.6,0.4-38.4,4-42.4-1.9v-37C285.5-224.1,299.6-210.7,311.4-197z"/>
		<path class="st6" d="M268.7-235.9v37c0,0-5,3.1-13.5,6.4c-13.5,5.1-35.9,10.5-61,3.7v-80.1c12.8,3,24.7,6.9,35.8,11.6h0.1
			C244.2-251.2,257.1-243.9,268.7-235.9z"/>
		<path class="st6" d="M194.1-268.9v80.1c0,0-52.6,22.6-99.2,3.3c-0.1,0-0.1-0.1-0.2-0.1v-86.5c0.1,0,0.1,0,0.2,0
			c0.6-0.1,1.1-0.2,1.7-0.2h0.1c0.1,0,0.2,0,0.3,0c6.6-0.9,13.1-1.5,19.4-2C145.3-276.5,171.2-274.2,194.1-268.9z"/>
	</g>
	<text transform="matrix(1 0 0 1 -47.5711 -212.2866)" class="st1 st9" style="font-size:25.2946px;">H</text>
	<text transform="matrix(1 0 0 1 39.4334 -212.2866)" class="st1 st9" style="font-size:25.2946px;">Y</text>
	<text transform="matrix(1 0 0 1 137.3402 -212.2866)" class="st1 st9" style="font-size:25.2946px;">P</text>
	<text transform="matrix(1 0 0 1 226.95 -212.2866)" class="st1 st9" style="font-size:25.2946px;">E</text>
</g>
<g id="Layer_5">
	<path class="st7" d="M190.7,200l-19.5,0c-0.6-2.4-0.8-4.9-0.8-6.4c0-0.6,0-1.1,0-1.4l0,0c-0.3-1.9-1.4-3.6-3.2-4.6
		c-3-1.7-6.8-0.7-8.5,2.4c-0.6,1.1-0.8,2.3-0.7,3.5c0,0,0.2,3.2-0.5,6.7l-28.3,0.1c-0.8-2.7-1.1-5.6-1.1-7.3c0-0.6,0-1.1,0-1.4l0,0
		c-0.3-1.9-1.4-3.6-3.2-4.6c-3-1.7-6.8-0.7-8.5,2.4c-0.6,1.1-0.9,2.3-0.7,3.5l0,0c0,0.3,0.2,3.9-0.6,7.6L87,200.6
		c-0.8-2.6-1-5.5-1-7.2c0-0.7,0-1.2,0-1.5c-0.3-1.9-1.4-3.6-3.2-4.6c-3-1.7-6.8-0.7-8.5,2.4c-0.6,1.1-0.9,2.3-0.7,3.5l0,0
		c0,0.3,0.2,3.8-0.6,7.4l-29,0c-0.9-2.7-1.2-5.8-1.2-7.7c0-0.7,0-1.2,0-1.5c-0.3-1.9-1.4-3.6-3.2-4.6c-3-1.7-6.8-0.7-8.5,2.4
		c-0.6,1.1-0.9,2.3-0.7,3.5c0,0,0,0,0,0.1c0,0.6,0.2,4.3-0.7,7.9l-16,0.1c-6.3,0.1-11.5-5.1-11.4-11.4L2.2,172c2.6-0.8,5.4-1,7.2-1
		c0.7,0,1.2,0,1.5,0c1.9-0.3,3.6-1.4,4.6-3.2c1.7-3,0.7-6.8-2.4-8.5c-1.1-0.6-2.3-0.9-3.5-0.7l0,0c-0.3,0-3.8,0.2-7.4-0.6l-0.1-28.2
		l0,0c2.5-0.7,5.2-1,6.9-1c0,0,0,0,0.1,0c0.8,0,1.3,0,1.6,0l0,0c1.8-0.3,3.5-1.4,4.5-3.2c1.7-3,0.7-6.8-2.4-8.5
		c-1.1-0.6-2.3-0.9-3.5-0.7l0,0c-0.3,0-3.7,0.2-7.3-0.6L1.9,87.3c2.6-0.8,5.4-1,7.1-1c0.6,0,1.1,0,1.4,0l0,0
		c1.9-0.2,3.6-1.4,4.6-3.2c1.7-3,0.7-6.8-2.4-8.5c-1.1-0.6-2.3-0.9-3.5-0.8l0,0c-0.3,0-3.8,0.2-7.3-0.6l-0.1-29
		c2.7-0.9,5.9-1.2,7.8-1.2c0,0,0,0,0.1,0c0.7,0,1.3,0,1.6,0l0,0c1.8-0.3,3.5-1.4,4.5-3.2c1.7-3,0.7-6.8-2.4-8.5
		c-1.1-0.6-2.3-0.9-3.5-0.8l0,0c-0.3,0-4.3,0.2-8.2-0.8l0-16.4c-0.1-6,4.9-11,10.9-11l19.2-0.1c0.8,2.8,0.9,6.1,0.8,8l0,0
		c0,0.7,0,1.2-0.1,1.5C32.7,14,34,16,36.2,17c2.5,1.1,5.5,0.4,7.3-1.6c1-1.2,1.5-2.7,1.5-4.2c0,0,0,0,0-0.1c0-0.7,0.1-5.1,1.5-8.9
		l26.7-0.1C74,4.9,74,8.1,74,9.9l0,0c0,0.8,0,1.3-0.1,1.6l0,0c0.2,2.2,1.5,4.2,3.7,5.1c2.5,1.1,5.5,0.4,7.2-1.6
		c1-1.2,1.5-2.7,1.5-4.2c0,0,0,0,0-0.1c0-0.7,0.1-5,1.5-8.8l27.6-0.1l0.1,0c0.7,2.5,0.9,5.2,0.8,7.1c-0.8,2.8,0.3,5.8,3,7.3
		c2.8,1.5,6.4,0.5,8.1-2c1-1.5,1.3-3.4,0.8-5c0.1-1.7,0.4-4.8,1.5-7.5l0.3,0L158,1.6c0.8,2.8,0.9,6,0.8,8l0,0c0,0.7,0,1.2-0.1,1.5
		c0.2,2.1,1.4,4.1,3.6,5.1c2.5,1.2,5.5,0.5,7.3-1.5c1.1-1.2,1.6-2.8,1.5-4.3c0,0,0,0,0-0.1c0-0.7,0.1-5.1,1.5-8.9l20.5,0.3
		c3.8,0,7,3.1,6.9,7l0.1,24c-2.4,0.6-4.9,0.8-6.5,0.8c-0.7,0-1.2,0-1.5,0c-1.9,0.3-3.6,1.4-4.6,3.2c-1.7,3-0.7,6.8,2.4,8.5
		c1.1,0.6,2.3,0.9,3.5,0.7l0,0c0.3,0,3.4-0.2,6.7,0.5l0.1,27.4c-2.4,0.6-4.9,0.8-6.4,0.8c-0.6,0-1.1,0-1.4,0l0,0
		c-1.9,0.3-3.6,1.4-4.6,3.2c-1.7,3-0.7,6.8,2.4,8.5c1.1,0.6,2.3,0.9,3.5,0.7l0,0c0.3,0,3.4-0.2,6.7,0.5l0.1,27.9
		c-2.6,0.9-5.6,1.1-7.4,1.1c0,0,0,0-0.1,0c-0.7,0-1.3,0-1.6,0l0,0c-1.8,0.3-3.5,1.4-4.5,3.2c-1.7,3-0.7,6.8,2.4,8.5
		c1.1,0.6,2.3,0.9,3.5,0.7l0,0c0,0,0.1,0,0.2,0c0.8,0,4.2-0.1,7.6,0.7l0.1,28.6c-2.7,0.9-5.8,1.2-7.7,1.2c0,0,0,0-0.1,0
		c-0.7,0-1.3,0-1.6,0l0,0c-1.8,0.3-3.5,1.4-4.5,3.2c-1.7,3-0.7,6.8,2.4,8.5c1.1,0.6,2.3,0.9,3.5,0.7l0,0c0.3,0,4.3-0.2,8.1,0.8
		l0.1,17.5C200.7,195.6,196.2,200,190.7,200z"/>
	<text transform="matrix(1 7.810030e-03 -7.810030e-03 1 39.1344 111.2774)" class="st8 st9 st10">CONNECT</text>
</g>
</svg>
