<?xml version="1.0" encoding="utf-8"?>
<!-- Generator: Adobe Illustrator 26.1.0, SVG Export Plug-In . SVG Version: 6.00 Build 0)  -->
<svg version="1.1" xmlns="http://www.w3.org/2000/svg" xmlns:xlink="http://www.w3.org/1999/xlink" x="0px" y="0px"
	 viewBox="0 0 196.9 200" style="enable-background:new 0 0 196.9 200;" xml:space="preserve">
<style type="text/css">
	.st0{display:none;}
	.st1{display:inline;}
	.st2{fill:#FC4648;stroke:#000000;stroke-width:4;stroke-miterlimit:10;}
	.st3{fill:#812C1D;}
	.st4{fill:#FE9A88;stroke:#000000;stroke-width:3;stroke-miterlimit:10;}
	.st5{fill:#F77861;}
	.st6{fill:#FFFFFF;stroke:#000000;stroke-width:3;stroke-miterlimit:10;}
	.st7{fill:#FFFFFF;}
	.st8{font-family:'TechHeadlines';}
	.st9{font-size:26.6686px;}
	.st10{letter-spacing:1;}
</style>
<g id="Layer_1" class="st0">
	<g class="st1">
		
			<image style="overflow:visible;" width="1920" height="960" xlink:href="lsd-image.jpg"  transform="matrix(1.1799 0 0 1.1799 -1007.3046 -576.8736)">
		</image>
	</g>
	<text transform="matrix(1 0 0 1 46.6354 -205.3238)" class="st1 st8" style="font-size:40.091px;">2</text>
</g>
<g id="Layer_4" class="st0">
	
		<image style="display:inline;overflow:visible;" width="1999" height="575" xlink:href="../../Downloads/pngkey.com-flames-png-4979431.png"  transform="matrix(-0.7071 0.7071 -0.7071 -0.7071 150.4397 361.0226)">
	</image>
</g>
<g id="Layer_3" class="st0">
	
		<image style="display:inline;overflow:visible;" width="1620" height="923" xlink:href="menu_aven_ulti_rds.png"  transform="matrix(0.7859 -0.7859 0.7859 0.7859 -1015.8535 123.4772)">
	</image>
</g>
<g id="Layer_2" class="st0">
	<g class="st1">
		<path class="st2" d="M381.8-100c-18.7-131.3-76.4-203.1-133.6-239.1c-57.3-36-123.7-10.4-131-7.8c-7.4,2.6-19.5,10-75.9-5.6
			c-56.4-15.6-104.1,9.1-104.1,9.1c-105.9,48.6-136.9,201.3-139.3,230c-9.6,115,82.4,182.2,82.4,182.2c4.1,3.3,8.3,6.5,12.6,9.5
			c56.9,39.9,130.1,52.1,199.5,49.6c67.7-2.5,131.9-19,173.8-37.7c5.7-2.6,11.3-5.3,16.6-8.3C359.6,38.4,389.2-48.5,381.8-100z
			 M293.8-21.6c-34.5,25.5-86.4,47.3-163,48.1c-13.5,0.1-26.3,0.2-38.4,0.1C-16,25.9-74.9,15.4-121-26.1c-20.8-18.7-39-43.7-58-76.9
			c0,0,13-48.2,52-93.5c11.8-13.7,25.9-27.1,42.7-38.8v0c20.6-14.4,45.2-26.2,74.5-33c17.6-4.1,36.8-6.4,57.9-6.2
			c13,0.1,26.8,1,41.3,3c0.1,0,0.1,0,0.2,0c0,0,0.3-0.1,0.9-0.2c0.2,0,0.3-0.1,0.5-0.1c0,0,0.1,0,0.1,0c0.1,0,0.2,0,0.3,0
			c3.1-0.5,9.9-1.4,19.4-2c3.2-0.2,6.7-0.3,10.5-0.4c17.7-0.4,41.5,0.7,67.3,6.6c0.3,0,0.5,0.1,0.7,0.2c0.4,0.1,0.8,0.2,1.1,0.3
			c0.4,0.1,0.8,0.2,1.2,0.3c10.6,2.5,21.6,5.9,32.7,10.2c0,0,0.1,0,0.1,0c14,5.5,28.1,12.7,41.8,22c14.9,10.1,29.3,22.7,42.4,38.3
			c0,0,0,0,0,0c19.8,23.6,36.9,54.1,48.8,93.4C357.5-103.1,343.8-58.4,293.8-21.6z"/>
		<path class="st3" d="M357.5-103.1c0,0-13.7,44.6-63.7,81.5c-0.6-86.1-26.7-144.7-41-170.4c8.5-3.2,13.5-6.4,13.5-6.4
			c4,5.9,38.8,2.3,42.4,1.9c0,0,0,0,0,0C328.6-172.9,345.6-142.4,357.5-103.1z"/>
		<path class="st3" d="M-124.9-196.6c0,0,38.5,4.3,42.7-1.8c0,0,2.2,1.4,6.3,3.3v0c-0.6,0.9-42.7,71.7-45.1,169
			c-20.8-18.7-39-43.7-58-76.9c0,0,13-48.2,52-93.5c11.8-13.7,25.9-27.1,42.7-38.8v0c20.6-14.4,45.2-26.2,74.5-33
			c17.6-4.1,36.8-6.4,57.9-6.2c-20.3,0-38.9,2.3-55.9,6.2c-29.3,6.8-53.9,18.7-74.5,33v0C-99.1-223.7-113.2-210.2-124.9-196.6z"/>
		<path class="st4" d="M293.8-21.6c0.2,31-2.9,65.6-11.1,103.5c-1.3,6.1-2.7,12.3-4.3,18.5c-49.1,194.3-170.3,214.7-170.3,214.7
			C3.3,319.2-40,257.2-99.6,100.4c-2.8-7.4-5.3-14.8-7.5-22.2c-11-36.7-14.7-72-13.9-104.4c2.4-97.2,44.5-168,45.1-169v0l68.2-2.5
			l99.4-3.7l0.6,0l99.4-3.7l51.9-1.9c0,0,3.7,5,9.2,14.8C267.1-166.3,293.2-107.6,293.8-21.6z"/>
		<g>
			<path class="st5" d="M92.4-139.3c9.5,61,11.7,122.9,12,184.5c-0.3,61.6-2.4,123.5-12,184.5c-9.6-61-11.7-122.9-12-184.5
				C80.7-16.4,82.8-78.3,92.4-139.3L92.4-139.3z"/>
		</g>
		<path class="st6" d="M-82.2-235.4v37c-4.2,6.2-42.7,1.8-42.7,1.8C-113.2-210.2-99.1-223.7-82.2-235.4z"/>
		<path class="st6" d="M-7.7-268.5v80.1c-30.4,8.2-56.7-1.3-68.2-6.8v0c-4-1.9-6.3-3.3-6.3-3.3v-37C-61.7-249.8-37-261.6-7.7-268.5z
			"/>
		<path class="st6" d="M91.7-271.6v86.5c-0.1,0-0.1,0.1-0.2,0.1c-46.6,19.3-99.2-3.3-99.2-3.3v-80.1c17-3.9,35.6-6.2,55.9-6.2
			c13.4,0,27.5,0.9,42.4,2.9c0.3,0,0.6,0.1,1,0.1C91.6-271.7,91.7-271.6,91.7-271.6z"/>
		<path class="st6" d="M309-196.6c0,0-0.1,0-0.3,0c-3.6,0.4-38.4,4-42.4-1.9v-37C283.1-223.7,297.3-210.2,309-196.6z"/>
		<path class="st6" d="M266.3-235.4v37c0,0-5,3.1-13.5,6.4c-13.5,5.1-35.9,10.5-61,3.7v-80.1c12.8,3,24.7,6.9,35.8,11.6
			c0,0,0.1,0,0.1,0C241.9-250.8,254.7-243.5,266.3-235.4z"/>
		<path class="st6" d="M191.8-268.5v80.1c0,0-52.6,22.6-99.2,3.3c-0.1,0-0.1-0.1-0.2-0.1v-86.5c0.1,0,0.1,0,0.2,0
			c0.6-0.1,1.1-0.2,1.7-0.2c0,0,0.1,0,0.1,0c0.1,0,0.2,0,0.3,0c6.6-0.9,13.1-1.5,19.4-2C143-276,168.8-273.8,191.8-268.5z"/>
	</g>
	<text transform="matrix(1 0 0 1 -49.91 -211.8389)" class="st1 st8" style="font-size:25.2946px;">H</text>
	<text transform="matrix(1 0 0 1 37.0944 -211.8389)" class="st1 st8" style="font-size:25.2946px;">Y</text>
	<text transform="matrix(1 0 0 1 135.0012 -211.8389)" class="st1 st8" style="font-size:25.2946px;">P</text>
	<text transform="matrix(1 0 0 1 224.6109 -211.8389)" class="st1 st8" style="font-size:25.2946px;">E</text>
</g>
<g id="Layer_5">
	<path class="st2" d="M189.2,199.8l-19.5,0.2c-0.6-2.4-0.8-4.9-0.9-6.4c0-0.6,0-1.1,0-1.4c0,0,0,0,0,0c-0.3-1.9-1.4-3.6-3.2-4.6
		c-3-1.7-6.8-0.6-8.5,2.5c-0.6,1.1-0.8,2.3-0.7,3.5c0,0,0.2,3.2-0.4,6.7l-28.3,0.3c-0.8-2.7-1.1-5.6-1.2-7.3c0-0.6,0-1.1,0-1.4
		c0,0,0,0,0,0c-0.3-1.9-1.4-3.6-3.2-4.6c-3-1.7-6.8-0.6-8.5,2.5c-0.6,1.1-0.9,2.3-0.7,3.5c0,0,0,0,0,0c0,0.3,0.2,3.9-0.5,7.6
		L85.4,201c-0.8-2.6-1-5.5-1.1-7.2c0-0.7,0-1.2,0-1.5c-0.3-1.9-1.4-3.6-3.2-4.6c-3-1.7-6.8-0.6-8.5,2.5c-0.6,1.1-0.9,2.3-0.7,3.5
		c0,0,0,0,0,0c0,0.3,0.2,3.8-0.5,7.4l-28.9,0.3c-0.9-2.7-1.2-5.8-1.3-7.7c0-0.7,0-1.2,0-1.5c-0.3-1.9-1.4-3.6-3.2-4.6
		c-3-1.7-6.8-0.6-8.5,2.5c-0.6,1.1-0.9,2.3-0.7,3.5c0,0,0,0,0,0.1c0,0.6,0.2,4.3-0.6,7.9l-16,0.2c-6.3,0.1-11.5-5-11.5-11.3
		l-0.2-17.3c2.6-0.8,5.4-1,7.2-1.1c0.7,0,1.2,0,1.5,0c1.9-0.3,3.6-1.4,4.6-3.2c1.7-3,0.6-6.8-2.5-8.5c-1.1-0.6-2.3-0.9-3.5-0.7
		c0,0,0,0,0,0c-0.3,0-3.8,0.2-7.4-0.5L0,131l0,0c2.5-0.7,5.2-1,6.9-1.1c0,0,0,0,0.1,0c0.8,0,1.3,0,1.6,0c0,0,0,0,0,0
		c1.8-0.3,3.5-1.4,4.5-3.2c1.7-3,0.6-6.8-2.5-8.5c-1.1-0.6-2.3-0.9-3.5-0.7c0,0,0,0,0,0c-0.3,0-3.7,0.2-7.3-0.5l-0.3-28.5
		c2.6-0.8,5.4-1,7.1-1.1c0.6,0,1.1,0,1.4,0c0,0,0,0,0,0c1.9-0.2,3.6-1.4,4.6-3.2c1.7-3,0.6-6.8-2.5-8.5c-1.1-0.6-2.3-0.9-3.5-0.8
		c0,0,0,0,0,0c-0.3,0-3.8,0.2-7.3-0.5l-0.3-29c2.7-0.9,5.9-1.2,7.8-1.3c0,0,0,0,0.1,0c0.7,0,1.3,0,1.6,0c0,0,0,0,0,0
		c1.8-0.3,3.5-1.4,4.5-3.2c1.7-3,0.6-6.8-2.5-8.5c-1.1-0.6-2.3-0.9-3.5-0.8c0,0,0,0,0,0c-0.3,0-4.3,0.2-8.2-0.7l-0.2-16.5
		c-0.1-6,4.8-11,10.8-11.1l19.2-0.2c0.8,2.8,0.9,6.1,0.9,8c0,0,0,0,0,0c0,0.7,0,1.2-0.1,1.5c0.2,2.2,1.5,4.2,3.7,5.2
		c2.5,1.1,5.5,0.4,7.3-1.7c1-1.2,1.5-2.7,1.5-4.2c0,0,0,0,0-0.1c0-0.7,0.1-5.1,1.4-8.9l26.7-0.3c0.8,2.8,0.9,6,0.9,7.8c0,0,0,0,0,0
		c0,0.8,0,1.3-0.1,1.6l0,0c0.2,2.2,1.5,4.2,3.7,5.1c2.5,1.1,5.5,0.4,7.2-1.7c1-1.2,1.5-2.7,1.5-4.2c0,0,0,0,0-0.1
		c0-0.7,0.1-5,1.4-8.8l27.6-0.3l0.1,0c0.7,2.5,0.9,5.2,0.9,7.1c-0.8,2.8,0.3,5.8,3.1,7.3c2.8,1.5,6.4,0.5,8.1-2.1
		c1-1.5,1.3-3.4,0.8-5c0.1-1.7,0.4-4.8,1.4-7.5l0.3,0L155,1.9c0.8,2.8,0.9,6,0.9,8c0,0,0,0,0,0c0,0.7,0,1.2-0.1,1.5
		c0.2,2.1,1.4,4.1,3.6,5.1c2.5,1.2,5.5,0.5,7.3-1.6c1.1-1.2,1.6-2.8,1.5-4.3c0,0,0,0,0-0.1c0-0.7,0.1-5.1,1.4-8.9l20.2-0.2
		c3.8,0,7,3,7,6.9l0.3,24c-2.4,0.6-4.9,0.8-6.5,0.9c-0.7,0-1.2,0-1.5,0c-1.9,0.3-3.6,1.4-4.6,3.2c-1.7,3-0.6,6.8,2.5,8.5
		c1.1,0.6,2.3,0.9,3.5,0.7c0,0,0,0,0,0c0.3,0,3.4-0.2,6.7,0.4l0.3,27.5c-2.4,0.6-4.9,0.8-6.4,0.9c-0.6,0-1.1,0-1.4,0c0,0,0,0,0,0
		c-1.9,0.3-3.6,1.4-4.6,3.2c-1.7,3-0.6,6.8,2.5,8.5c1.1,0.6,2.3,0.9,3.5,0.7c0,0,0,0,0,0c0.3,0,3.4-0.2,6.7,0.4l0.3,27.9
		c-2.6,0.9-5.6,1.1-7.4,1.2c0,0,0,0-0.1,0c-0.7,0-1.3,0-1.6,0c0,0,0,0,0,0c-1.8,0.3-3.5,1.4-4.5,3.2c-1.7,3-0.6,6.8,2.5,8.5
		c1.1,0.6,2.3,0.9,3.5,0.7c0,0,0,0,0,0c0,0,0.1,0,0.2,0c0.8,0,4.2-0.1,7.6,0.6l0.3,28.6c-2.7,0.9-5.8,1.2-7.7,1.3c0,0,0,0-0.1,0
		c-0.7,0-1.3,0-1.6,0c0,0,0,0,0,0c-1.8,0.3-3.5,1.4-4.5,3.2c-1.7,3-0.6,6.8,2.5,8.5c1.1,0.6,2.3,0.9,3.5,0.7c0,0,0,0,0,0
		c0.3,0,4.3-0.2,8.1,0.7l0.2,17.5C199.1,195.2,194.7,199.7,189.2,199.8z"/>
	<text transform="matrix(1 0 0 1 36.8765 112.2099)" class="st7 st8 st9 st10">CONNECT</text>
</g>
</svg>
