<?xml version="1.0" encoding="utf-8"?>
<!-- Generator: Adobe Illustrator 26.1.0, SVG Export Plug-In . SVG Version: 6.00 Build 0)  -->
<svg version="1.1" id="Layer_1" xmlns="http://www.w3.org/2000/svg" xmlns:xlink="http://www.w3.org/1999/xlink" x="0px" y="0px"
	 viewBox="0 0 303 68.68" style="enable-background:new 0 0 303 68.68;" xml:space="preserve">
<style type="text/css">
	.st0{fill:#17E800;}
	.st1{fill:#FFFFFF;}
</style>
<g id="NFTR">
	<path class="st0" d="M301.33,65.03l-18.35-23.61c-0.28-0.36-0.12-0.88,0.31-1.01c3.71-1.12,12.05-7.78,12.05-18.91
		c0-15.77-11.39-20.28-22.94-20.28h-7.51h-29.81c-0.36,0-0.64,0.29-0.64,0.64v11.74c0,0.36,0.29,0.64,0.64,0.64h29.81h6.72
		c3.01,0,8.51,2.31,8.51,7.38c0,6.26-7.54,7.17-13.46,7.17h-31.58c-0.36,0-0.64,0.29-0.64,0.65v11.84c0,0.36,0.29,0.65,0.64,0.65
		h29.48c0.21,0,0.4,0.1,0.52,0.27l16.82,23.6c0.12,0.17,0.32,0.27,0.52,0.27h18.39C301.35,66.07,301.66,65.45,301.33,65.03"/>
	<path class="st1" d="M195.48,24.18h-14.37c-0.36,0-0.64,0.29-0.64,0.64v40.76c0,0.36,0.29,0.64,0.64,0.64h14.37
		c0.36,0,0.64-0.29,0.64-0.64V24.82C196.12,24.46,195.83,24.18,195.48,24.18"/>
	<path class="st1" d="M71.9,1.53H57.53c-0.35,0-0.64,0.25-0.64,0.56v31.72c0,0.13,0.05,0.26,0.15,0.36L71.16,50.7
		c0.39,0.4,1.14,0.16,1.14-0.36l0.25-48.25C72.55,1.78,72.26,1.53,71.9,1.53"/>
	<path class="st1" d="M17.37,1.53h-0.25H2.11c-0.35,0-0.64,0.29-0.64,0.65v0.87v62.53c0,0.36,0.29,0.64,0.64,0.64h14.37
		c0.36,0,0.64-0.29,0.64-0.64V23.32c0-0.6,0.75-0.87,1.13-0.42L54.68,66c0.12,0.14,0.3,0.23,0.49,0.23h15.98
		c0.55,0,0.85-0.64,0.49-1.06L17.37,1.53z"/>
	<path class="st1" d="M143.97,1.33H87.65c-0.35,0-0.64,0.29-0.64,0.65v11.74c0,0.36,0.29,0.64,0.64,0.64h56.31
		c0.36,0,0.64-0.29,0.64-0.64V1.97C144.61,1.62,144.32,1.33,143.97,1.33"/>
	<path class="st1" d="M224.07,1.33h-71.55c-0.35,0-0.64,0.29-0.64,0.65v11.74c0,0.36,0.29,0.64,0.64,0.64h71.55
		c0.35,0,0.64-0.29,0.64-0.64V1.97C224.71,1.62,224.42,1.33,224.07,1.33"/>
	<path class="st1" d="M143.97,30.69H87.65c-0.35,0-0.64,0.29-0.64,0.64v11.44c0,0.36,0.29,0.64,0.64,0.64h56.31
		c0.36,0,0.64-0.29,0.64-0.64V31.33C144.61,30.98,144.32,30.69,143.97,30.69"/>
</g>
</svg>